<svg viewBox="0 0 100 100" xmlns="http://www.w3.org/2000/svg">
  <!-- Soccer ball base -->
  <circle cx="50" cy="50" r="38" fill="#FFFFFF" stroke="#000000" stroke-width="2"/>

  <!-- Black pentagons and hexagons pattern -->
  <!-- Center pentagon -->
  <path d="M 50 25 L 60 35 L 55 48 L 45 48 L 40 35 Z" fill="#000000"/>

  <!-- Top hexagons -->
  <path d="M 40 35 L 35 28 L 40 20 L 50 25 Z" fill="#E8E8E8" stroke="#000000" stroke-width="1"/>
  <path d="M 50 25 L 60 20 L 65 28 L 60 35 Z" fill="#E8E8E8" stroke="#000000" stroke-width="1"/>

  <!-- Middle hexagons -->
  <path d="M 40 35 L 30 40 L 28 50 L 35 55 L 45 48 Z" fill="#E8E8E8" stroke="#000000" stroke-width="1"/>
  <path d="M 60 35 L 70 40 L 72 50 L 65 55 L 55 48 Z" fill="#E8E8E8" stroke="#000000" stroke-width="1"/>

  <!-- Bottom pentagons -->
  <path d="M 45 48 L 35 55 L 38 68 L 48 70 Z" fill="#000000"/>
  <path d="M 55 48 L 65 55 L 62 68 L 52 70 Z" fill="#000000"/>

  <!-- Bottom hexagons -->
  <path d="M 48 70 L 38 68 L 35 78 L 43 85 L 50 82 Z" fill="#E8E8E8" stroke="#000000" stroke-width="1"/>
  <path d="M 52 70 L 62 68 L 65 78 L 57 85 L 50 82 Z" fill="#E8E8E8" stroke="#000000" stroke-width="1"/>

  <!-- Highlight for 3D effect -->
  <ellipse cx="38" cy="35" rx="12" ry="15" fill="#FFFFFF" opacity="0.3"/>
</svg>