<svg viewBox="0 0 100 100" xmlns="http://www.w3.org/2000/svg">
  <!-- Carrot body -->
  <path d="M 50 30 Q 40 45 38 60 Q 36 75 42 85 Q 46 90 50 92 Q 54 90 58 85 Q 64 75 62 60 Q 60 45 50 30 Z" fill="#FF8C00"/>
  <!-- Carrot shading -->
  <path d="M 52 35 Q 56 50 58 65 Q 59 75 56 83" stroke="#FF7F00" stroke-width="2" fill="none" opacity="0.5"/>
  <path d="M 48 35 Q 44 50 42 65 Q 41 75 44 83" stroke="#FFA500" stroke-width="1.5" fill="none" opacity="0.4"/>
  <!-- Horizontal ridges -->
  <path d="M 45 40 Q 50 41 55 40" stroke="#E67300" stroke-width="1.5" fill="none"/>
  <path d="M 43 50 Q 50 51 57 50" stroke="#E67300" stroke-width="1.5" fill="none"/>
  <path d="M 42 60 Q 50 61 58 60" stroke="#E67300" stroke-width="1.5" fill="none"/>
  <path d="M 43 70 Q 50 71 57 70" stroke="#E67300" stroke-width="1.5" fill="none"/>
  <path d="M 45 78 Q 50 79 55 78" stroke="#E67300" stroke-width="1.5" fill="none"/>
  <!-- Green tops -->
  <path d="M 45 25 Q 40 10 38 5 Q 36 8 40 20 Q 43 28 45 30" fill="#228B22"/>
  <path d="M 50 22 Q 48 8 47 3 Q 45 6 47 18 Q 49 26 50 30" fill="#32CD32"/>
  <path d="M 55 25 Q 60 10 62 5 Q 64 8 60 20 Q 57 28 55 30" fill="#228B22"/>
  <path d="M 52 26 Q 54 12 56 6 Q 58 9 55 20 Q 52 28 52 30" fill="#3CB371"/>
  <!-- Leaf details -->
  <line x1="47" y1="10" x2="47" y2="22" stroke="#1a6b1a" stroke-width="0.5"/>
  <line x1="38" y1="12" x2="40" y2="22" stroke="#1a6b1a" stroke-width="0.5"/>
</svg>