<svg viewBox="0 0 100 100" xmlns="http://www.w3.org/2000/svg">
  <!-- Body -->
  <ellipse cx="50" cy="58" rx="24" ry="20" fill="#D4A574"/>
  <ellipse cx="50" cy="58" rx="20" ry="16" fill="#C89968"/>

  <!-- Head -->
  <circle cx="50" cy="38" r="16" fill="#D4A574"/>
  <circle cx="50" cy="38" r="13" fill="#C89968"/>

  <!-- Ears -->
  <ellipse cx="36" cy="32" rx="7" ry="14" fill="#A67C52" transform="rotate(-20 36 32)"/>
  <ellipse cx="64" cy="32" rx="7" ry="14" fill="#A67C52" transform="rotate(20 64 32)"/>

  <!-- Eyes -->
  <circle cx="44" cy="36" r="3" fill="#000"/>
  <circle cx="56" cy="36" r="3" fill="#000"/>
  <circle cx="45" cy="35" r="1.5" fill="#FFF"/>
  <circle cx="57" cy="35" r="1.5" fill="#FFF"/>

  <!-- Snout -->
  <ellipse cx="50" cy="43" rx="8" ry="6" fill="#E8C9A8"/>

  <!-- Nose -->
  <ellipse cx="50" cy="42" rx="4" ry="3" fill="#000"/>

  <!-- Mouth -->
  <path d="M50 43 L48 47" stroke="#000" stroke-width="1.5" fill="none" stroke-linecap="round"/>
  <path d="M50 43 L52 47" stroke="#000" stroke-width="1.5" fill="none" stroke-linecap="round"/>
  <path d="M44 47 Q50 50 56 47" stroke="#000" stroke-width="1.5" fill="none" stroke-linecap="round"/>

  <!-- Tongue -->
  <ellipse cx="50" cy="49" rx="3" ry="2" fill="#FF6B9D"/>

  <!-- Paws -->
  <ellipse cx="40" cy="75" rx="4" ry="6" fill="#A67C52"/>
  <ellipse cx="48" cy="75" rx="4" ry="6" fill="#A67C52"/>
  <ellipse cx="52" cy="75" rx="4" ry="6" fill="#A67C52"/>
  <ellipse cx="60" cy="75" rx="4" ry="6" fill="#A67C52"/>
</svg>