<svg viewBox="0 0 100 100" xmlns="http://www.w3.org/2000/svg">
  <defs>
    <linearGradient id="forkGradient" x1="0%" y1="0%" x2="100%" y2="100%">
      <stop offset="0%" style="stop-color:#E8E8E8;stop-opacity:1" />
      <stop offset="50%" style="stop-color:#FFFFFF;stop-opacity:1" />
      <stop offset="100%" style="stop-color:#D0D0D0;stop-opacity:1" />
    </linearGradient>
    <linearGradient id="forkShine" x1="0%" y1="0%" x2="100%" y2="0%">
      <stop offset="0%" style="stop-color:#FFFFFF;stop-opacity:0" />
      <stop offset="50%" style="stop-color:#FFFFFF;stop-opacity:0.8" />
      <stop offset="100%" style="stop-color:#FFFFFF;stop-opacity:0" />
    </linearGradient>
  </defs>

  <!-- Fork head/base -->
  <path d="M30 15 L30 48 Q30 53 35 53 L42 53 L42 90 Q42 92 44 92 L56 92 Q58 92 58 90 L58 53 L65 53 Q70 53 70 48 L70 15 Q70 12 68 12 L32 12 Q30 12 30 15 Z"
        fill="url(#forkGradient)" stroke="#A0A0A0" stroke-width="2"/>

  <!-- Prong 1 -->
  <rect x="33" y="12" width="6" height="42" rx="3" fill="url(#forkGradient)" stroke="#A0A0A0" stroke-width="1.5"/>

  <!-- Prong 2 -->
  <rect x="47" y="12" width="6" height="42" rx="3" fill="url(#forkGradient)" stroke="#A0A0A0" stroke-width="1.5"/>

  <!-- Prong 3 -->
  <rect x="61" y="12" width="6" height="42" rx="3" fill="url(#forkGradient)" stroke="#A0A0A0" stroke-width="1.5"/>

  <!-- Prong shine highlights -->
  <rect x="34.5" y="14" width="3" height="35" rx="1.5" fill="#FFFFFF" opacity="0.4"/>
  <rect x="48.5" y="14" width="3" height="35" rx="1.5" fill="#FFFFFF" opacity="0.4"/>
  <rect x="62.5" y="14" width="3" height="35" rx="1.5" fill="#FFFFFF" opacity="0.4"/>

  <!-- Handle shine -->
  <rect x="48" y="55" width="4" height="30" rx="2" fill="url(#forkShine)" opacity="0.4"/>

  <!-- Handle end detail -->
  <ellipse cx="50" cy="90" rx="6" ry="3" fill="#F5F5F5" opacity="0.6"/>
</svg>
