<svg viewBox="0 0 100 100" xmlns="http://www.w3.org/2000/svg">
  <!-- Strawberry body -->
  <path d="M50 28 C35 28 28 35 28 50 C28 65 35 80 50 82 C65 80 72 65 72 50 C72 35 65 28 50 28 Z" fill="#E74C3C"/>
  <path d="M50 28 C38 28 32 35 32 50 C32 63 38 76 50 78 C62 76 68 63 68 50 C68 35 62 28 50 28 Z" fill="#C0392B"/>

  <!-- Seeds (more realistic pattern) -->
  <ellipse cx="42" cy="42" rx="2.5" ry="3" fill="#F9E79F" transform="rotate(-15 42 42)"/>
  <ellipse cx="58" cy="42" rx="2.5" ry="3" fill="#F9E79F" transform="rotate(15 58 42)"/>
  <ellipse cx="50" cy="48" rx="2.5" ry="3" fill="#F9E79F"/>
  <ellipse cx="42" cy="54" rx="2.5" ry="3" fill="#F9E79F" transform="rotate(-10 42 54)"/>
  <ellipse cx="58" cy="54" rx="2.5" ry="3" fill="#F9E79F" transform="rotate(10 58 54)"/>
  <ellipse cx="38" cy="48" rx="2.5" ry="3" fill="#F9E79F" transform="rotate(-20 38 48)"/>
  <ellipse cx="62" cy="48" rx="2.5" ry="3" fill="#F9E79F" transform="rotate(20 62 48)"/>
  <ellipse cx="46" cy="62" rx="2.5" ry="3" fill="#F9E79F" transform="rotate(-5 46 62)"/>
  <ellipse cx="54" cy="62" rx="2.5" ry="3" fill="#F9E79F" transform="rotate(5 54 62)"/>
  <ellipse cx="50" cy="68" rx="2.5" ry="3" fill="#F9E79F"/>

  <!-- Leaves (calyx) -->
  <g transform="translate(50,28)">
    <ellipse cx="-8" cy="-6" rx="6" ry="4" fill="#27AE60" transform="rotate(-25 -8 -6)"/>
    <ellipse cx="0" cy="-8" rx="6" ry="4" fill="#27AE60"/>
    <ellipse cx="8" cy="-6" rx="6" ry="4" fill="#27AE60" transform="rotate(25 8 -6)"/>
    <ellipse cx="-12" cy="-2" rx="5" ry="3" fill="#229954" transform="rotate(-35 -12 -2)"/>
    <ellipse cx="12" cy="-2" rx="5" ry="3" fill="#229954" transform="rotate(35 12 -2)"/>
  </g>

  <!-- Highlight -->
  <ellipse cx="40" cy="38" rx="8" ry="10" fill="#FF6B6B" opacity="0.4"/>
</svg>