<svg viewBox="0 0 100 100" xmlns="http://www.w3.org/2000/svg">
  <!-- Rind (green outer) -->
  <path d="M 20 75 Q 50 25 80 75 Z" fill="#2D5016"/>
  <!-- Light green layer -->
  <path d="M 23 73 Q 50 28 77 73 Z" fill="#90EE90"/>
  <!-- White layer -->
  <path d="M 26 71 Q 50 31 74 71 Z" fill="#F0FFF0"/>
  <!-- Red flesh -->
  <path d="M 28 70 Q 50 33 72 70 Z" fill="#FF6B6B"/>
  <!-- Inner pink highlight -->
  <path d="M 35 65 Q 50 40 65 65" fill="#FF8585" opacity="0.6"/>
  <!-- Seeds -->
  <ellipse cx="45" cy="55" rx="2.5" ry="3.5" fill="#000000" transform="rotate(20 45 55)"/>
  <ellipse cx="55" cy="53" rx="2.5" ry="3.5" fill="#000000" transform="rotate(-15 55 53)"/>
  <ellipse cx="50" cy="48" rx="2.5" ry="3.5" fill="#000000" transform="rotate(10 50 48)"/>
  <ellipse cx="40" cy="62" rx="2.5" ry="3.5" fill="#000000" transform="rotate(-20 40 62)"/>
  <ellipse cx="60" cy="60" rx="2.5" ry="3.5" fill="#000000" transform="rotate(25 60 60)"/>
  <ellipse cx="52" cy="62" rx="2.5" ry="3.5" fill="#000000" transform="rotate(-10 52 62)"/>
  <ellipse cx="48" cy="44" rx="2.5" ry="3.5" fill="#000000" transform="rotate(15 48 44)"/>
  <ellipse cx="58" cy="47" rx="2.5" ry="3.5" fill="#000000" transform="rotate(-25 58 47)"/>
</svg>